<?xml version="1.0" encoding="UTF-8" standalone="no"?><!DOCTYPE svg PUBLIC "-//W3C//DTD SVG 1.1//EN" "http://www.w3.org/Graphics/SVG/1.1/DTD/svg11.dtd"><!-- Generated by graphviz version 2.40.1 (20161225.0304)
 --><!-- Title: %0 Pages: 1 --><svg xmlns="http://www.w3.org/2000/svg" xmlns:xlink="http://www.w3.org/1999/xlink" width="731pt" height="228pt" viewBox="0.00 0.00 731.11 228.00">
<g id="graph0" class="graph" transform="scale(1 1) rotate(0) translate(4 224)">
<title>%0</title>
<polygon fill="#ffffff" stroke="transparent" points="-4,4 -4,-224 727.1104,-224 727.1104,4 -4,4"/>
<g id="clust1" class="cluster">
<title>cluster_Connected</title>
<polygon fill="none" stroke="#000000" stroke-dasharray="5,2" points="249.4405,-96 249.4405,-212 345.2021,-212 345.2021,-96 249.4405,-96"/>
<text text-anchor="middle" x="297.3213" y="-195.4" font-family="Times,serif" font-size="14.00" fill="#000000">Substates of</text>
<text text-anchor="middle" x="297.3213" y="-178.6" font-family="Times,serif" font-size="14.00" fill="#000000">Connected</text>
</g>
<!-- Connected -->
<g id="node1" class="node">
<title>Connected</title>
<path fill="none" stroke="#000000" d="M125.4485,-114.7003C125.4485,-114.7003 11.8503,-114.7003 11.8503,-114.7003 5.8503,-114.7003 -.1497,-108.7003 -.1497,-102.7003 -.1497,-102.7003 -.1497,-51.2997 -.1497,-51.2997 -.1497,-45.2997 5.8503,-39.2997 11.8503,-39.2997 11.8503,-39.2997 125.4485,-39.2997 125.4485,-39.2997 131.4485,-39.2997 137.4485,-45.2997 137.4485,-51.2997 137.4485,-51.2997 137.4485,-102.7003 137.4485,-102.7003 137.4485,-108.7003 131.4485,-114.7003 125.4485,-114.7003"/>
<text text-anchor="middle" x="68.6494" y="-98" font-family="Times,serif" font-size="14.00" fill="#000000">Connected</text>
<text text-anchor="middle" x="68.6494" y="-81.2" font-family="Times,serif" font-size="14.00" fill="#000000">----------</text>
<text text-anchor="start" x="8" y="-64.4" font-family="Times,serif" font-size="14.00" fill="#000000">entry / startCallTimer</text>
<text text-anchor="start" x="8" y="-47.6" font-family="Times,serif" font-size="14.00" fill="#000000">exit / func2</text>
</g>
<!-- Connected&#45;&gt;Connected -->
<g id="edge2" class="edge">
<title>Connected-&gt;Connected</title>
<path fill="none" stroke="#000000" d="M45.1989,-114.6806C46.4361,-124.8576 54.2529,-132.6 68.6494,-132.6 78.0971,-132.6 84.7112,-129.2656 88.4916,-124.097"/>
<polygon fill="#000000" stroke="#000000" points="91.7899,-125.2709 92.0999,-114.6806 85.2534,-122.7661 91.7899,-125.2709"/>
<text text-anchor="start" x="3.1357" y="-170.4" font-family="Times,serif" font-size="14.00" fill="#000000">🔒 MuteMicrophone</text>
<text text-anchor="start" x="3.1357" y="-153.6" font-family="Times,serif" font-size="14.00" fill="#000000">🔒 SetVolume</text>
<text text-anchor="start" x="3.1357" y="-136.8" font-family="Times,serif" font-size="14.00" fill="#000000">🔒 UnmuteMicrophone</text>
</g>
<!-- OnHold -->
<g id="node2" class="node">
<title>OnHold</title>
<path fill="none" stroke="#000000" d="M325.0833,-162.4014C325.0833,-162.4014 269.5593,-162.4014 269.5593,-162.4014 263.5593,-162.4014 257.5593,-156.4014 257.5593,-150.4014 257.5593,-150.4014 257.5593,-115.5986 257.5593,-115.5986 257.5593,-109.5986 263.5593,-103.5986 269.5593,-103.5986 269.5593,-103.5986 325.0833,-103.5986 325.0833,-103.5986 331.0833,-103.5986 337.0833,-109.5986 337.0833,-115.5986 337.0833,-115.5986 337.0833,-150.4014 337.0833,-150.4014 337.0833,-156.4014 331.0833,-162.4014 325.0833,-162.4014"/>
<text text-anchor="middle" x="297.3213" y="-145.6" font-family="Times,serif" font-size="14.00" fill="#000000">OnHold</text>
<text text-anchor="middle" x="297.3213" y="-128.8" font-family="Times,serif" font-size="14.00" fill="#000000">----------</text>
<text text-anchor="start" x="265.4405" y="-112" font-family="Times,serif" font-size="14.00" fill="#000000">exit / func6</text>
</g>
<!-- Connected&#45;&gt;OnHold -->
<g id="edge3" class="edge">
<title>Connected-&gt;OnHold</title>
<path fill="none" stroke="#000000" d="M137.5306,-109.2931C143.466,-111.4358 149.4407,-113.3808 155.2988,-115 185.2499,-123.2789 219.8211,-127.7645 247.3555,-130.1874"/>
<polygon fill="#000000" stroke="#000000" points="247.288,-133.6935 257.5396,-131.0186 247.8575,-126.7167 247.288,-133.6935"/>
<text text-anchor="start" x="155.2988" y="-133.2" font-family="Times,serif" font-size="14.00" fill="#000000">PlacedOnHold</text>
</g>
<!-- OffHook -->
<g id="node3" class="node">
<title>OffHook</title>
<path fill="none" stroke="#000000" d="M318.3573,-79C318.3573,-79 276.2853,-79 276.2853,-79 270.2853,-79 264.2853,-73 264.2853,-67 264.2853,-67 264.2853,-55 264.2853,-55 264.2853,-49 270.2853,-43 276.2853,-43 276.2853,-43 318.3573,-43 318.3573,-43 324.3573,-43 330.3573,-49 330.3573,-55 330.3573,-55 330.3573,-67 330.3573,-67 330.3573,-73 324.3573,-79 318.3573,-79"/>
<text text-anchor="middle" x="297.3213" y="-56.8" font-family="Times,serif" font-size="14.00" fill="#000000">OffHook</text>
</g>
<!-- Connected&#45;&gt;OffHook -->
<g id="edge1" class="edge">
<title>Connected-&gt;OffHook</title>
<path fill="none" stroke="#000000" d="M137.4852,-60.6766C143.484,-59.6765 149.4827,-58.8237 155.2988,-58.2 191.7214,-54.2942 201.0982,-57.3403 237.7196,-58.2 242.9575,-58.323 248.4522,-58.5066 253.8978,-58.7222"/>
<polygon fill="#000000" stroke="#000000" points="254.0871,-62.2336 264.2289,-59.1686 254.3893,-55.2401 254.0871,-62.2336"/>
<text text-anchor="start" x="160.3612" y="-63.2" font-family="Times,serif" font-size="14.00" fill="#000000">LeftMessage</text>
</g>
<!-- OnHold&#45;&gt;Connected -->
<g id="edge6" class="edge">
<title>OnHold-&gt;Connected</title>
<path fill="none" stroke="#000000" d="M257.9617,-103.7391C251.458,-99.9916 244.5891,-96.624 237.7196,-94.2 209.2226,-84.1444 176.4647,-79.3818 147.417,-77.2866"/>
<polygon fill="#000000" stroke="#000000" points="147.5099,-73.7856 137.3103,-76.6524 147.0715,-80.7719 147.5099,-73.7856"/>
<text text-anchor="start" x="155.3058" y="-98.2" font-family="Times,serif" font-size="14.00" fill="#000000">TakenOffHold</text>
</g>
<!-- PhoneDestroyed -->
<g id="node5" class="node">
<title>PhoneDestroyed</title>
<path fill="none" stroke="#000000" d="M615.8442,-151C615.8442,-151 531.7846,-151 531.7846,-151 525.7846,-151 519.7846,-145 519.7846,-139 519.7846,-139 519.7846,-127 519.7846,-127 519.7846,-121 525.7846,-115 531.7846,-115 531.7846,-115 615.8442,-115 615.8442,-115 621.8442,-115 627.8442,-121 627.8442,-127 627.8442,-127 627.8442,-139 627.8442,-139 627.8442,-145 621.8442,-151 615.8442,-151"/>
<text text-anchor="middle" x="573.8144" y="-128.8" font-family="Times,serif" font-size="14.00" fill="#000000">PhoneDestroyed</text>
</g>
<!-- OnHold&#45;&gt;PhoneDestroyed -->
<g id="edge5" class="edge">
<title>OnHold-&gt;PhoneDestroyed</title>
<path fill="none" stroke="#000000" d="M337.2305,-133C382.3293,-133 456.3764,-133 509.6257,-133"/>
<polygon fill="#000000" stroke="#000000" points="509.6488,-136.5001 519.6488,-133 509.6487,-129.5001 509.6488,-136.5001"/>
<text text-anchor="start" x="356.923" y="-137.2" font-family="Times,serif" font-size="14.00" fill="#000000">PhoneHurledAgainstWall</text>
</g>
<!-- Ringing -->
<g id="node4" class="node">
<title>Ringing</title>
<path fill="none" stroke="#000000" d="M592.4323,-36C592.4323,-36 555.1965,-36 555.1965,-36 549.1965,-36 543.1965,-30 543.1965,-24 543.1965,-24 543.1965,-12 543.1965,-12 543.1965,-6 549.1965,0 555.1965,0 555.1965,0 592.4323,0 592.4323,0 598.4323,0 604.4323,-6 604.4323,-12 604.4323,-12 604.4323,-24 604.4323,-24 604.4323,-30 598.4323,-36 592.4323,-36"/>
<text text-anchor="middle" x="573.8144" y="-13.8" font-family="Times,serif" font-size="14.00" fill="#000000">Ringing</text>
</g>
<!-- OffHook&#45;&gt;Ringing -->
<g id="edge4" class="edge">
<title>OffHook-&gt;Ringing</title>
<path fill="none" stroke="#000000" d="M330.4311,-49.3013C338.9749,-46.6304 348.2183,-44.0402 356.923,-42.2 417.4942,-29.3952 489.1049,-23.0774 532.9855,-20.1822"/>
<polygon fill="#000000" stroke="#000000" points="533.2251,-23.6741 542.9844,-19.5503 532.7835,-16.6881 533.2251,-23.6741"/>
<text text-anchor="start" x="377.5289" y="-47.2" font-family="Times,serif" font-size="14.00" fill="#000000">CallDialed / func1</text>
</g>
<!-- Ringing&#45;&gt;Connected -->
<g id="edge7" class="edge">
<title>Ringing-&gt;Connected</title>
<path fill="none" stroke="#000000" d="M543.1464,-14.6507C485.2752,-9.0518 356.1892,-.0036 249.4405,-17.2 214.9809,-22.7512 178.1945,-33.8947 146.8617,-45.0737"/>
<polygon fill="#000000" stroke="#000000" points="145.5263,-41.8349 137.3215,-48.538 147.9156,-48.4146 145.5263,-41.8349"/>
<text text-anchor="start" x="255.7196" y="-22.2" font-family="Times,serif" font-size="14.00" fill="#000000">CallConnected</text>
</g>
<!-- init -->
<g id="node6" class="node">
<title>init</title>
<ellipse fill="#000000" stroke="#000000" cx="684.5946" cy="-73" rx="1.8" ry="1.8"/>
</g>
<!-- init&#45;&gt;OffHook -->
<g id="edge8" class="edge">
<title>init-&gt;OffHook</title>
<path fill="none" stroke="#000000" d="M682.6391,-72.9394C659.4864,-72.222 436.8182,-65.3224 340.9097,-62.3506"/>
<polygon fill="#000000" stroke="#000000" points="340.7788,-58.845 330.6752,-62.0335 340.562,-65.8416 340.7788,-58.845"/>
</g>
<!-- legend -->
<g id="node7" class="node">
<title>legend</title>
<text text-anchor="start" x="654.0788" y="-13.8" font-family="Times,serif" font-size="14.00" fill="#000000">🔒 Internal</text>
</g>
<!-- init&#45;&gt;legend -->
</g>
</svg>