<?xml version="1.0" encoding="UTF-8" standalone="no"?><!DOCTYPE svg PUBLIC "-//W3C//DTD SVG 1.1//EN" "http://www.w3.org/Graphics/SVG/1.1/DTD/svg11.dtd"><!-- Generated by graphviz version 2.40.1 (20161225.0304)
 --><!-- Title: %0 Pages: 1 --><svg xmlns="http://www.w3.org/2000/svg" xmlns:xlink="http://www.w3.org/1999/xlink" width="726pt" height="248pt" viewBox="0.00 0.00 725.67 248.00">
<g id="graph0" class="graph" transform="scale(1 1) rotate(0) translate(4 244)">
<title>%0</title>
<polygon fill="#ffffff" stroke="transparent" points="-4,4 -4,-244 721.6686,-244 721.6686,4 -4,4"/>
<g id="clust1" class="cluster">
<title>cluster_Connected</title>
<polygon fill="none" stroke="#000000" stroke-dasharray="5,2" points="311.9812,-8 311.9812,-124 407.7428,-124 407.7428,-8 311.9812,-8"/>
<text text-anchor="middle" x="359.862" y="-107.4" font-family="Times,serif" font-size="14.00" fill="#000000">Substates of</text>
<text text-anchor="middle" x="359.862" y="-90.6" font-family="Times,serif" font-size="14.00" fill="#000000">Connected</text>
</g>
<!-- legend -->
<g id="node1" class="node">
<title>legend</title>
<text text-anchor="start" x="8" y="-123.8" font-family="Times,serif" font-size="14.00" fill="#000000">🔒 Internal</text>
</g>
<!-- init -->
<g id="node2" class="node">
<title>init</title>
<ellipse fill="#000000" stroke="#000000" cx="38.5158" cy="-166" rx="1.8" ry="1.8"/>
</g>
<!-- OffHook -->
<g id="node3" class="node">
<title>OffHook</title>
<path fill="none" stroke="#000000" d="M168.3348,-184C168.3348,-184 126.2628,-184 126.2628,-184 120.2628,-184 114.2628,-178 114.2628,-172 114.2628,-172 114.2628,-160 114.2628,-160 114.2628,-154 120.2628,-148 126.2628,-148 126.2628,-148 168.3348,-148 168.3348,-148 174.3348,-148 180.3348,-154 180.3348,-160 180.3348,-160 180.3348,-172 180.3348,-172 180.3348,-178 174.3348,-184 168.3348,-184"/>
<text text-anchor="middle" x="147.2988" y="-161.8" font-family="Times,serif" font-size="14.00" fill="#000000">OffHook</text>
</g>
<!-- init&#45;&gt;OffHook -->
<g id="edge1" class="edge">
<title>init-&gt;OffHook</title>
<path fill="none" stroke="#000000" d="M40.4039,-166C48.0753,-166 77.7465,-166 103.8871,-166"/>
<polygon fill="#000000" stroke="#000000" points="104.0507,-169.5001 114.0507,-166 104.0507,-162.5001 104.0507,-169.5001"/>
</g>
<!-- Ringing -->
<g id="node6" class="node">
<title>Ringing</title>
<path fill="none" stroke="#000000" d="M378.4799,-221C378.4799,-221 341.2441,-221 341.2441,-221 335.2441,-221 329.2441,-215 329.2441,-209 329.2441,-209 329.2441,-197 329.2441,-197 329.2441,-191 335.2441,-185 341.2441,-185 341.2441,-185 378.4799,-185 378.4799,-185 384.4799,-185 390.4799,-191 390.4799,-197 390.4799,-197 390.4799,-209 390.4799,-209 390.4799,-215 384.4799,-221 378.4799,-221"/>
<text text-anchor="middle" x="359.862" y="-198.8" font-family="Times,serif" font-size="14.00" fill="#000000">Ringing</text>
</g>
<!-- OffHook&#45;&gt;Ringing -->
<g id="edge5" class="edge">
<title>OffHook-&gt;Ringing</title>
<path fill="none" stroke="#000000" d="M180.5118,-171.7813C217.9993,-178.3066 278.9937,-188.9236 319.2746,-195.9351"/>
<polygon fill="#000000" stroke="#000000" points="318.8417,-199.4123 329.2938,-197.6791 320.0421,-192.516 318.8417,-199.4123"/>
<text text-anchor="middle" x="250.2736" y="-196.2" font-family="Times,serif" font-size="14.00" fill="#000000">CallDialed / func1</text>
</g>
<!-- Connected -->
<g id="node4" class="node">
<title>Connected</title>
<path fill="none" stroke="#000000" d="M705.8183,-171.7003C705.8183,-171.7003 592.2201,-171.7003 592.2201,-171.7003 586.2201,-171.7003 580.2201,-165.7003 580.2201,-159.7003 580.2201,-159.7003 580.2201,-108.2997 580.2201,-108.2997 580.2201,-102.2997 586.2201,-96.2997 592.2201,-96.2997 592.2201,-96.2997 705.8183,-96.2997 705.8183,-96.2997 711.8183,-96.2997 717.8183,-102.2997 717.8183,-108.2997 717.8183,-108.2997 717.8183,-159.7003 717.8183,-159.7003 717.8183,-165.7003 711.8183,-171.7003 705.8183,-171.7003"/>
<text text-anchor="middle" x="649.0192" y="-155" font-family="Times,serif" font-size="14.00" fill="#000000">Connected</text>
<text text-anchor="middle" x="649.0192" y="-138.2" font-family="Times,serif" font-size="14.00" fill="#000000">----------</text>
<text text-anchor="start" x="588.3698" y="-121.4" font-family="Times,serif" font-size="14.00" fill="#000000">entry / startCallTimer</text>
<text text-anchor="start" x="588.3698" y="-104.6" font-family="Times,serif" font-size="14.00" fill="#000000">exit / func2</text>
</g>
<!-- Connected&#45;&gt;OffHook -->
<g id="edge2" class="edge">
<title>Connected-&gt;OffHook</title>
<path fill="none" stroke="#000000" d="M580.0441,-138.3993C474.9794,-145.1004 277.8719,-157.672 190.6812,-163.233"/>
<polygon fill="#000000" stroke="#000000" points="190.3635,-159.7461 180.6066,-163.8756 190.8092,-166.7319 190.3635,-159.7461"/>
<text text-anchor="middle" x="359.862" y="-159.2" font-family="Times,serif" font-size="14.00" fill="#000000">LeftMessage</text>
</g>
<!-- Connected&#45;&gt;Connected -->
<g id="edge3" class="edge">
<title>Connected-&gt;Connected</title>
<path fill="none" stroke="#000000" d="M619.613,-171.6806C621.1644,-181.8576 630.9665,-189.6 649.0192,-189.6 660.8663,-189.6 669.1601,-186.2656 673.9007,-181.097"/>
<polygon fill="#000000" stroke="#000000" points="677.249,-182.2099 678.4254,-171.6806 670.9396,-179.1781 677.249,-182.2099"/>
<text text-anchor="start" x="583.5055" y="-227.4" font-family="Times,serif" font-size="14.00" fill="#000000">🔒 MuteMicrophone</text>
<text text-anchor="start" x="583.5055" y="-210.6" font-family="Times,serif" font-size="14.00" fill="#000000">🔒 SetVolume</text>
<text text-anchor="start" x="583.5055" y="-193.8" font-family="Times,serif" font-size="14.00" fill="#000000">🔒 UnmuteMicrophone</text>
</g>
<!-- OnHold -->
<g id="node5" class="node">
<title>OnHold</title>
<path fill="none" stroke="#000000" d="M387.624,-74.4014C387.624,-74.4014 332.1,-74.4014 332.1,-74.4014 326.1,-74.4014 320.1,-68.4014 320.1,-62.4014 320.1,-62.4014 320.1,-27.5986 320.1,-27.5986 320.1,-21.5986 326.1,-15.5986 332.1,-15.5986 332.1,-15.5986 387.624,-15.5986 387.624,-15.5986 393.624,-15.5986 399.624,-21.5986 399.624,-27.5986 399.624,-27.5986 399.624,-62.4014 399.624,-62.4014 399.624,-68.4014 393.624,-74.4014 387.624,-74.4014"/>
<text text-anchor="middle" x="359.862" y="-57.6" font-family="Times,serif" font-size="14.00" fill="#000000">OnHold</text>
<text text-anchor="middle" x="359.862" y="-40.8" font-family="Times,serif" font-size="14.00" fill="#000000">----------</text>
<text text-anchor="start" x="327.9812" y="-24" font-family="Times,serif" font-size="14.00" fill="#000000">exit / func6</text>
</g>
<!-- Connected&#45;&gt;OnHold -->
<g id="edge4" class="edge">
<title>Connected-&gt;OnHold</title>
<path fill="none" stroke="#000000" d="M579.9772,-122.1427C574.0231,-121.1398 568.0911,-120.1475 562.3698,-119.2 498.1441,-108.564 476.6239,-123.7684 417.7428,-96 409.6457,-92.1814 401.8308,-86.8798 394.7029,-81.1301"/>
<polygon fill="#000000" stroke="#000000" points="396.542,-78.0961 386.6751,-74.2366 391.9816,-83.4068 396.542,-78.0961"/>
<text text-anchor="middle" x="490.0563" y="-123.2" font-family="Times,serif" font-size="14.00" fill="#000000">PlacedOnHold</text>
</g>
<!-- OnHold&#45;&gt;Connected -->
<g id="edge7" class="edge">
<title>OnHold-&gt;Connected</title>
<path fill="none" stroke="#000000" d="M399.665,-52.8668C405.7118,-53.9743 411.8859,-55.0554 417.7428,-56 481.7583,-66.3239 501.778,-52.109 562.3698,-75.2 572.8812,-79.2058 583.3734,-84.7102 593.2415,-90.7548"/>
<polygon fill="#000000" stroke="#000000" points="591.426,-93.7482 601.7377,-96.1817 595.1942,-87.849 591.426,-93.7482"/>
<text text-anchor="middle" x="490.0563" y="-79.2" font-family="Times,serif" font-size="14.00" fill="#000000">TakenOffHold</text>
</g>
<!-- PhoneDestroyed -->
<g id="node7" class="node">
<title>PhoneDestroyed</title>
<path fill="none" stroke="#000000" d="M691.049,-56C691.049,-56 606.9894,-56 606.9894,-56 600.9894,-56 594.9894,-50 594.9894,-44 594.9894,-44 594.9894,-32 594.9894,-32 594.9894,-26 600.9894,-20 606.9894,-20 606.9894,-20 691.049,-20 691.049,-20 697.049,-20 703.049,-26 703.049,-32 703.049,-32 703.049,-44 703.049,-44 703.049,-50 697.049,-56 691.049,-56"/>
<text text-anchor="middle" x="649.0192" y="-33.8" font-family="Times,serif" font-size="14.00" fill="#000000">PhoneDestroyed</text>
</g>
<!-- OnHold&#45;&gt;PhoneDestroyed -->
<g id="edge6" class="edge">
<title>OnHold-&gt;PhoneDestroyed</title>
<path fill="none" stroke="#000000" d="M399.6785,-40.5102C405.7235,-39.9735 411.8934,-39.5076 417.7428,-39.2 474.0325,-36.2403 538.1342,-36.1658 584.5532,-36.7022"/>
<polygon fill="#000000" stroke="#000000" points="584.7266,-40.2046 594.7708,-36.8334 584.8165,-33.2052 584.7266,-40.2046"/>
<text text-anchor="middle" x="490.0563" y="-43.2" font-family="Times,serif" font-size="14.00" fill="#000000">PhoneHurledAgainstWall</text>
</g>
<!-- Ringing&#45;&gt;Connected -->
<g id="edge8" class="edge">
<title>Ringing-&gt;Connected</title>
<path fill="none" stroke="#000000" d="M390.7061,-198.4684C430.6793,-192.2755 502.3668,-180.0766 562.3698,-164 565.0175,-163.2906 567.7011,-162.5409 570.4037,-161.7595"/>
<polygon fill="#000000" stroke="#000000" points="571.6703,-165.0337 580.2425,-158.8073 569.6585,-158.329 571.6703,-165.0337"/>
<text text-anchor="middle" x="490.0563" y="-197.2" font-family="Times,serif" font-size="14.00" fill="#000000">CallConnected</text>
</g>
</g>
</svg>